<mxfile host="app.diagrams.net" modified="2023-04-09T14:27:43.201Z" agent="Mozilla/5.0 (Macintosh; Intel Mac OS X 10_15_7) AppleWebKit/605.1.15 (KHTML, like Gecko) Version/16.3 Safari/605.1.15" etag="LTFRC-bQ6J7bCBpoXq7Z" version="21.1.5" type="google">
  <diagram id="C5RBs43oDa-KdzZeNtuy" name="Page-1">
    <mxGraphModel grid="1" page="1" gridSize="10" guides="1" tooltips="1" connect="1" arrows="1" fold="1" pageScale="1" pageWidth="827" pageHeight="1169" math="0" shadow="0">
      <root>
        <mxCell id="WIyWlLk6GJQsqaUBKTNV-0" />
        <mxCell id="WIyWlLk6GJQsqaUBKTNV-1" parent="WIyWlLk6GJQsqaUBKTNV-0" />
        <mxCell id="qMRaLrNa-dL105C4I90B-3" style="edgeStyle=orthogonalEdgeStyle;rounded=0;orthogonalLoop=1;jettySize=auto;html=1;exitX=1;exitY=0.5;exitDx=0;exitDy=0;entryX=0;entryY=0.5;entryDx=0;entryDy=0;startArrow=diamondThin;startFill=0;endArrow=none;endFill=0;startSize=15;fillColor=#dae8fc;strokeColor=#6c8ebf;" edge="1" parent="WIyWlLk6GJQsqaUBKTNV-1" source="qMRaLrNa-dL105C4I90B-0" target="qMRaLrNa-dL105C4I90B-1">
          <mxGeometry relative="1" as="geometry" />
        </mxCell>
        <mxCell id="qMRaLrNa-dL105C4I90B-0" value="Order" style="html=1;whiteSpace=wrap;fillColor=#dae8fc;strokeColor=#6c8ebf;" vertex="1" parent="WIyWlLk6GJQsqaUBKTNV-1">
          <mxGeometry x="-680" y="128" width="110" height="50" as="geometry" />
        </mxCell>
        <mxCell id="qMRaLrNa-dL105C4I90B-1" value="Item" style="html=1;whiteSpace=wrap;fillColor=#dae8fc;strokeColor=#6c8ebf;" vertex="1" parent="WIyWlLk6GJQsqaUBKTNV-1">
          <mxGeometry x="-490" y="128" width="110" height="50" as="geometry" />
        </mxCell>
        <mxCell id="qMRaLrNa-dL105C4I90B-5" style="edgeStyle=orthogonalEdgeStyle;rounded=0;orthogonalLoop=1;jettySize=auto;html=1;exitX=0.5;exitY=0;exitDx=0;exitDy=0;entryX=0.5;entryY=1;entryDx=0;entryDy=0;endArrow=none;endFill=0;startArrow=diamondThin;startFill=1;startSize=15;fillColor=#dae8fc;strokeColor=#6c8ebf;" edge="1" parent="WIyWlLk6GJQsqaUBKTNV-1" source="qMRaLrNa-dL105C4I90B-4" target="qMRaLrNa-dL105C4I90B-0">
          <mxGeometry relative="1" as="geometry" />
        </mxCell>
        <mxCell id="qMRaLrNa-dL105C4I90B-4" value="Customer" style="html=1;whiteSpace=wrap;fillColor=#dae8fc;strokeColor=#6c8ebf;" vertex="1" parent="WIyWlLk6GJQsqaUBKTNV-1">
          <mxGeometry x="-680" y="258" width="110" height="50" as="geometry" />
        </mxCell>
        <mxCell id="qMRaLrNa-dL105C4I90B-8" style="edgeStyle=orthogonalEdgeStyle;rounded=0;orthogonalLoop=1;jettySize=auto;html=1;exitX=0.5;exitY=0;exitDx=0;exitDy=0;entryX=0.5;entryY=1;entryDx=0;entryDy=0;startArrow=diamondThin;startFill=1;endArrow=none;endFill=0;startSize=15;fillColor=#dae8fc;strokeColor=#6c8ebf;" edge="1" parent="WIyWlLk6GJQsqaUBKTNV-1" source="qMRaLrNa-dL105C4I90B-7" target="qMRaLrNa-dL105C4I90B-1">
          <mxGeometry relative="1" as="geometry" />
        </mxCell>
        <mxCell id="qMRaLrNa-dL105C4I90B-9" style="edgeStyle=orthogonalEdgeStyle;rounded=0;orthogonalLoop=1;jettySize=auto;html=1;exitX=0;exitY=0.5;exitDx=0;exitDy=0;entryX=1;entryY=0.5;entryDx=0;entryDy=0;startArrow=diamondThin;startFill=1;endArrow=none;endFill=0;startSize=15;fillColor=#dae8fc;strokeColor=#6c8ebf;" edge="1" parent="WIyWlLk6GJQsqaUBKTNV-1" source="qMRaLrNa-dL105C4I90B-7" target="qMRaLrNa-dL105C4I90B-4">
          <mxGeometry relative="1" as="geometry" />
        </mxCell>
        <mxCell id="qMRaLrNa-dL105C4I90B-7" value="StoreManager" style="html=1;whiteSpace=wrap;fillColor=#dae8fc;strokeColor=#6c8ebf;" vertex="1" parent="WIyWlLk6GJQsqaUBKTNV-1">
          <mxGeometry x="-490" y="258" width="110" height="50" as="geometry" />
        </mxCell>
        <mxCell id="qMRaLrNa-dL105C4I90B-12" style="edgeStyle=orthogonalEdgeStyle;rounded=0;orthogonalLoop=1;jettySize=auto;html=1;exitX=0.5;exitY=0;exitDx=0;exitDy=0;entryX=0.5;entryY=1;entryDx=0;entryDy=0;endSize=15;endArrow=block;endFill=0;fillColor=#dae8fc;strokeColor=#6c8ebf;" edge="1" parent="WIyWlLk6GJQsqaUBKTNV-1" source="qMRaLrNa-dL105C4I90B-10" target="qMRaLrNa-dL105C4I90B-4">
          <mxGeometry relative="1" as="geometry" />
        </mxCell>
        <mxCell id="qMRaLrNa-dL105C4I90B-10" value="StandartCustomer" style="html=1;whiteSpace=wrap;fillColor=#dae8fc;strokeColor=#6c8ebf;" vertex="1" parent="WIyWlLk6GJQsqaUBKTNV-1">
          <mxGeometry x="-760" y="378" width="110" height="50" as="geometry" />
        </mxCell>
        <mxCell id="qMRaLrNa-dL105C4I90B-13" style="edgeStyle=orthogonalEdgeStyle;rounded=0;orthogonalLoop=1;jettySize=auto;html=1;exitX=0.5;exitY=0;exitDx=0;exitDy=0;entryX=0.5;entryY=1;entryDx=0;entryDy=0;endSize=15;endArrow=block;endFill=0;fillColor=#dae8fc;strokeColor=#6c8ebf;" edge="1" parent="WIyWlLk6GJQsqaUBKTNV-1" source="qMRaLrNa-dL105C4I90B-11" target="qMRaLrNa-dL105C4I90B-4">
          <mxGeometry relative="1" as="geometry">
            <mxPoint x="-590" y="338" as="targetPoint" />
          </mxGeometry>
        </mxCell>
        <mxCell id="qMRaLrNa-dL105C4I90B-11" value="MemberCustomer" style="html=1;whiteSpace=wrap;fillColor=#dae8fc;strokeColor=#6c8ebf;" vertex="1" parent="WIyWlLk6GJQsqaUBKTNV-1">
          <mxGeometry x="-610" y="378" width="110" height="50" as="geometry" />
        </mxCell>
        <mxCell id="qMRaLrNa-dL105C4I90B-22" value="StoreManager" style="swimlane;whiteSpace=wrap;html=1;fillColor=#dae8fc;strokeColor=#6c8ebf;" vertex="1" parent="WIyWlLk6GJQsqaUBKTNV-1">
          <mxGeometry x="-280" y="128" width="630" height="190" as="geometry" />
        </mxCell>
        <mxCell id="qMRaLrNa-dL105C4I90B-31" value="&lt;span style=&quot;font-weight: normal;&quot;&gt;-standard: Customer [0..*]&lt;/span&gt;" style="swimlane;whiteSpace=wrap;html=1;container=0;fillColor=#dae8fc;strokeColor=#6c8ebf;" vertex="1" parent="qMRaLrNa-dL105C4I90B-22">
          <mxGeometry x="20" y="50" width="200" height="110" as="geometry" />
        </mxCell>
        <mxCell id="qMRaLrNa-dL105C4I90B-32" value="-standardOrder : Order [0..*]" style="html=1;whiteSpace=wrap;fillColor=#dae8fc;strokeColor=#6c8ebf;" vertex="1" parent="qMRaLrNa-dL105C4I90B-31">
          <mxGeometry x="10" y="40" width="180" height="50" as="geometry" />
        </mxCell>
        <mxCell id="qMRaLrNa-dL105C4I90B-33" value="&lt;span style=&quot;font-weight: normal;&quot;&gt;-member: Customer [0..*]&lt;/span&gt;" style="swimlane;whiteSpace=wrap;html=1;container=0;fillColor=#dae8fc;strokeColor=#6c8ebf;" vertex="1" parent="qMRaLrNa-dL105C4I90B-22">
          <mxGeometry x="410" y="50" width="200" height="110" as="geometry" />
        </mxCell>
        <mxCell id="qMRaLrNa-dL105C4I90B-34" value="-memberOrder : Order [0..*]" style="html=1;whiteSpace=wrap;fillColor=#dae8fc;strokeColor=#6c8ebf;" vertex="1" parent="qMRaLrNa-dL105C4I90B-33">
          <mxGeometry x="10" y="40" width="180" height="50" as="geometry" />
        </mxCell>
        <mxCell id="qMRaLrNa-dL105C4I90B-35" value="- : Item [0..*]" style="html=1;whiteSpace=wrap;fillColor=#dae8fc;strokeColor=#6c8ebf;" vertex="1" parent="qMRaLrNa-dL105C4I90B-22">
          <mxGeometry x="272.5" y="100" width="85" height="30" as="geometry" />
        </mxCell>
        <mxCell id="qMRaLrNa-dL105C4I90B-36" style="edgeStyle=orthogonalEdgeStyle;rounded=0;orthogonalLoop=1;jettySize=auto;html=1;exitX=1;exitY=0.5;exitDx=0;exitDy=0;entryX=0;entryY=0.5;entryDx=0;entryDy=0;endArrow=none;endFill=0;fillColor=#dae8fc;strokeColor=#6c8ebf;" edge="1" parent="qMRaLrNa-dL105C4I90B-22" source="qMRaLrNa-dL105C4I90B-32" target="qMRaLrNa-dL105C4I90B-35">
          <mxGeometry relative="1" as="geometry" />
        </mxCell>
        <mxCell id="qMRaLrNa-dL105C4I90B-37" style="edgeStyle=orthogonalEdgeStyle;rounded=0;orthogonalLoop=1;jettySize=auto;html=1;exitX=0;exitY=0.5;exitDx=0;exitDy=0;entryX=1;entryY=0.5;entryDx=0;entryDy=0;endArrow=none;endFill=0;fillColor=#dae8fc;strokeColor=#6c8ebf;" edge="1" parent="qMRaLrNa-dL105C4I90B-22" source="qMRaLrNa-dL105C4I90B-34" target="qMRaLrNa-dL105C4I90B-35">
          <mxGeometry relative="1" as="geometry" />
        </mxCell>
        <mxCell id="qMRaLrNa-dL105C4I90B-39" value="&lt;span style=&quot;font-weight: normal;&quot;&gt;&amp;lt;&amp;lt;Protocol&amp;gt;&amp;gt;&lt;/span&gt;&lt;br&gt;Component" style="swimlane;fontStyle=1;align=center;verticalAlign=top;childLayout=stackLayout;horizontal=1;startSize=40;horizontalStack=0;resizeParent=1;resizeParentMax=0;resizeLast=0;collapsible=1;marginBottom=0;whiteSpace=wrap;html=1;fillColor=#dae8fc;strokeColor=#6c8ebf;" vertex="1" parent="WIyWlLk6GJQsqaUBKTNV-1">
          <mxGeometry x="71" y="1170" width="200" height="66" as="geometry" />
        </mxCell>
        <mxCell id="qMRaLrNa-dL105C4I90B-40" value="func accept&amp;lt;T: Theme&amp;gt;(theme: T)" style="text;strokeColor=#6c8ebf;fillColor=#dae8fc;align=left;verticalAlign=top;spacingLeft=4;spacingRight=4;overflow=hidden;rotatable=0;points=[[0,0.5],[1,0.5]];portConstraint=eastwest;whiteSpace=wrap;html=1;" vertex="1" parent="qMRaLrNa-dL105C4I90B-39">
          <mxGeometry y="40" width="200" height="26" as="geometry" />
        </mxCell>
        <mxCell id="qMRaLrNa-dL105C4I90B-46" style="edgeStyle=orthogonalEdgeStyle;rounded=0;orthogonalLoop=1;jettySize=auto;html=1;exitX=0.5;exitY=0;exitDx=0;exitDy=0;entryX=0.495;entryY=0.977;entryDx=0;entryDy=0;entryPerimeter=0;dashed=1;endArrow=block;endFill=0;endSize=15;fillColor=#dae8fc;strokeColor=#6c8ebf;" edge="1" parent="WIyWlLk6GJQsqaUBKTNV-1" source="qMRaLrNa-dL105C4I90B-95" target="qMRaLrNa-dL105C4I90B-40">
          <mxGeometry relative="1" as="geometry">
            <mxPoint x="171" y="1260" as="targetPoint" />
            <mxPoint x="497" y="1330" as="sourcePoint" />
          </mxGeometry>
        </mxCell>
        <mxCell id="qMRaLrNa-dL105C4I90B-45" style="edgeStyle=orthogonalEdgeStyle;rounded=0;orthogonalLoop=1;jettySize=auto;html=1;exitX=0.5;exitY=0;exitDx=0;exitDy=0;entryX=0.495;entryY=0.977;entryDx=0;entryDy=0;entryPerimeter=0;dashed=1;endArrow=block;endFill=0;endSize=15;fillColor=#dae8fc;strokeColor=#6c8ebf;" edge="1" parent="WIyWlLk6GJQsqaUBKTNV-1" source="qMRaLrNa-dL105C4I90B-89" target="qMRaLrNa-dL105C4I90B-40">
          <mxGeometry relative="1" as="geometry">
            <mxPoint x="-56" y="1328.0000000000002" as="sourcePoint" />
          </mxGeometry>
        </mxCell>
        <mxCell id="qMRaLrNa-dL105C4I90B-49" value="&lt;span style=&quot;font-weight: normal;&quot;&gt;&amp;lt;&amp;lt;Protocol&amp;gt;&amp;gt;&lt;/span&gt;&lt;br&gt;Theme" style="swimlane;fontStyle=1;align=center;verticalAlign=top;childLayout=stackLayout;horizontal=1;startSize=40;horizontalStack=0;resizeParent=1;resizeParentMax=0;resizeLast=0;collapsible=1;marginBottom=0;whiteSpace=wrap;html=1;fillColor=#dae8fc;strokeColor=#6c8ebf;" vertex="1" parent="WIyWlLk6GJQsqaUBKTNV-1">
          <mxGeometry x="-1010" y="1207" width="220" height="66" as="geometry" />
        </mxCell>
        <mxCell id="qMRaLrNa-dL105C4I90B-50" value="&lt;div&gt;&amp;nbsp; &amp;nbsp; var backgroundColor: UIColor { get }&lt;/div&gt;" style="text;strokeColor=#6c8ebf;fillColor=#dae8fc;align=left;verticalAlign=top;spacingLeft=4;spacingRight=4;overflow=hidden;rotatable=0;points=[[0,0.5],[1,0.5]];portConstraint=eastwest;whiteSpace=wrap;html=1;" vertex="1" parent="qMRaLrNa-dL105C4I90B-49">
          <mxGeometry y="40" width="220" height="26" as="geometry" />
        </mxCell>
        <mxCell id="qMRaLrNa-dL105C4I90B-55" style="edgeStyle=orthogonalEdgeStyle;rounded=0;orthogonalLoop=1;jettySize=auto;html=1;exitX=0.5;exitY=0;exitDx=0;exitDy=0;entryX=0.497;entryY=1.027;entryDx=0;entryDy=0;entryPerimeter=0;endArrow=block;endFill=0;endSize=15;fillColor=#dae8fc;strokeColor=#6c8ebf;" edge="1" parent="WIyWlLk6GJQsqaUBKTNV-1" source="qMRaLrNa-dL105C4I90B-51" target="qMRaLrNa-dL105C4I90B-50">
          <mxGeometry relative="1" as="geometry">
            <mxPoint x="-953" y="1287" as="targetPoint" />
          </mxGeometry>
        </mxCell>
        <mxCell id="qMRaLrNa-dL105C4I90B-51" value="&lt;span style=&quot;font-weight: normal;&quot;&gt;&amp;lt;&amp;lt;Protocol&amp;gt;&amp;gt;&lt;/span&gt;&lt;br&gt;ButtonTheme" style="swimlane;fontStyle=1;align=center;verticalAlign=top;childLayout=stackLayout;horizontal=1;startSize=40;horizontalStack=0;resizeParent=1;resizeParentMax=0;resizeLast=0;collapsible=1;marginBottom=0;whiteSpace=wrap;html=1;fillColor=#dae8fc;strokeColor=#6c8ebf;" vertex="1" parent="WIyWlLk6GJQsqaUBKTNV-1">
          <mxGeometry x="-1240" y="1341" width="200" height="80" as="geometry" />
        </mxCell>
        <mxCell id="qMRaLrNa-dL105C4I90B-52" value="&lt;div&gt;var textColor: UIColor { get }&lt;/div&gt;&lt;div&gt;var highlightedColor: UIColor { get }&lt;br&gt;&lt;/div&gt;" style="text;strokeColor=#6c8ebf;fillColor=#dae8fc;align=left;verticalAlign=top;spacingLeft=4;spacingRight=4;overflow=hidden;rotatable=0;points=[[0,0.5],[1,0.5]];portConstraint=eastwest;whiteSpace=wrap;html=1;" vertex="1" parent="qMRaLrNa-dL105C4I90B-51">
          <mxGeometry y="40" width="200" height="40" as="geometry" />
        </mxCell>
        <mxCell id="qMRaLrNa-dL105C4I90B-56" style="edgeStyle=orthogonalEdgeStyle;rounded=0;orthogonalLoop=1;jettySize=auto;html=1;exitX=0.5;exitY=0;exitDx=0;exitDy=0;entryX=0.497;entryY=1.027;entryDx=0;entryDy=0;entryPerimeter=0;endArrow=block;endFill=0;endSize=15;fillColor=#dae8fc;strokeColor=#6c8ebf;" edge="1" parent="WIyWlLk6GJQsqaUBKTNV-1" source="qMRaLrNa-dL105C4I90B-53" target="qMRaLrNa-dL105C4I90B-50">
          <mxGeometry relative="1" as="geometry">
            <mxPoint x="-890" y="1307" as="targetPoint" />
          </mxGeometry>
        </mxCell>
        <mxCell id="qMRaLrNa-dL105C4I90B-53" value="&lt;span style=&quot;font-weight: normal;&quot;&gt;&amp;lt;&amp;lt;Protocol&amp;gt;&amp;gt;&lt;/span&gt;&lt;br&gt;LabelTheme" style="swimlane;fontStyle=1;align=center;verticalAlign=top;childLayout=stackLayout;horizontal=1;startSize=40;horizontalStack=0;resizeParent=1;resizeParentMax=0;resizeLast=0;collapsible=1;marginBottom=0;whiteSpace=wrap;html=1;fillColor=#dae8fc;strokeColor=#6c8ebf;" vertex="1" parent="WIyWlLk6GJQsqaUBKTNV-1">
          <mxGeometry x="-739" y="1341" width="160" height="66" as="geometry" />
        </mxCell>
        <mxCell id="qMRaLrNa-dL105C4I90B-54" value="&lt;div&gt;var textColor: UIColor { get }&lt;/div&gt;" style="text;strokeColor=#6c8ebf;fillColor=#dae8fc;align=left;verticalAlign=top;spacingLeft=4;spacingRight=4;overflow=hidden;rotatable=0;points=[[0,0.5],[1,0.5]];portConstraint=eastwest;whiteSpace=wrap;html=1;" vertex="1" parent="qMRaLrNa-dL105C4I90B-53">
          <mxGeometry y="40" width="160" height="26" as="geometry" />
        </mxCell>
        <mxCell id="qMRaLrNa-dL105C4I90B-66" style="edgeStyle=orthogonalEdgeStyle;rounded=0;orthogonalLoop=1;jettySize=auto;html=1;exitX=0.5;exitY=0;exitDx=0;exitDy=0;entryX=0.49;entryY=0.991;entryDx=0;entryDy=0;entryPerimeter=0;dashed=1;endArrow=block;endFill=0;startSize=15;endSize=15;fillColor=#dae8fc;strokeColor=#6c8ebf;" edge="1" parent="WIyWlLk6GJQsqaUBKTNV-1">
          <mxGeometry relative="1" as="geometry">
            <mxPoint x="-1283" y="1491" as="sourcePoint" />
            <mxPoint x="-1140" y="1420.6399999999999" as="targetPoint" />
            <Array as="points">
              <mxPoint x="-1283" y="1456" />
              <mxPoint x="-1140" y="1456" />
            </Array>
          </mxGeometry>
        </mxCell>
        <mxCell id="qMRaLrNa-dL105C4I90B-57" value="DefaultButtonTheme" style="swimlane;fontStyle=1;align=center;verticalAlign=top;childLayout=stackLayout;horizontal=1;startSize=26;horizontalStack=0;resizeParent=1;resizeParentMax=0;resizeLast=0;collapsible=1;marginBottom=0;whiteSpace=wrap;html=1;fillColor=#dae8fc;strokeColor=#6c8ebf;" vertex="1" parent="WIyWlLk6GJQsqaUBKTNV-1">
          <mxGeometry x="-1370" y="1491" width="170" height="80" as="geometry" />
        </mxCell>
        <mxCell id="qMRaLrNa-dL105C4I90B-58" value="&lt;div&gt;var textColor: UIColor&lt;/div&gt;&lt;div&gt;var highlightedColor: UIColor&lt;br&gt;&lt;/div&gt;&lt;div&gt;var backgroundColor: UIColor&lt;br&gt;&lt;/div&gt;" style="text;strokeColor=#6c8ebf;fillColor=#dae8fc;align=left;verticalAlign=top;spacingLeft=4;spacingRight=4;overflow=hidden;rotatable=0;points=[[0,0.5],[1,0.5]];portConstraint=eastwest;whiteSpace=wrap;html=1;" vertex="1" parent="qMRaLrNa-dL105C4I90B-57">
          <mxGeometry y="26" width="170" height="54" as="geometry" />
        </mxCell>
        <mxCell id="qMRaLrNa-dL105C4I90B-67" style="edgeStyle=orthogonalEdgeStyle;rounded=0;orthogonalLoop=1;jettySize=auto;html=1;exitX=0.5;exitY=0;exitDx=0;exitDy=0;dashed=1;endArrow=block;endFill=0;startSize=15;endSize=15;fillColor=#dae8fc;strokeColor=#6c8ebf;" edge="1" parent="WIyWlLk6GJQsqaUBKTNV-1" source="qMRaLrNa-dL105C4I90B-59">
          <mxGeometry relative="1" as="geometry">
            <mxPoint x="-1140" y="1421" as="targetPoint" />
            <Array as="points">
              <mxPoint x="-1035" y="1456" />
              <mxPoint x="-1140" y="1456" />
            </Array>
          </mxGeometry>
        </mxCell>
        <mxCell id="qMRaLrNa-dL105C4I90B-59" value="NightButtonTheme" style="swimlane;fontStyle=1;align=center;verticalAlign=top;childLayout=stackLayout;horizontal=1;startSize=26;horizontalStack=0;resizeParent=1;resizeParentMax=0;resizeLast=0;collapsible=1;marginBottom=0;whiteSpace=wrap;html=1;fillColor=#dae8fc;strokeColor=#6c8ebf;" vertex="1" parent="WIyWlLk6GJQsqaUBKTNV-1">
          <mxGeometry x="-1120" y="1491" width="170" height="80" as="geometry" />
        </mxCell>
        <mxCell id="qMRaLrNa-dL105C4I90B-60" value="&lt;div&gt;var textColor: UIColor&lt;/div&gt;&lt;div&gt;var highlightedColor: UIColor&lt;br&gt;&lt;/div&gt;&lt;div&gt;var backgroundColor: UIColor&lt;br&gt;&lt;/div&gt;" style="text;strokeColor=#6c8ebf;fillColor=#dae8fc;align=left;verticalAlign=top;spacingLeft=4;spacingRight=4;overflow=hidden;rotatable=0;points=[[0,0.5],[1,0.5]];portConstraint=eastwest;whiteSpace=wrap;html=1;" vertex="1" parent="qMRaLrNa-dL105C4I90B-59">
          <mxGeometry y="26" width="170" height="54" as="geometry" />
        </mxCell>
        <mxCell id="qMRaLrNa-dL105C4I90B-68" style="edgeStyle=orthogonalEdgeStyle;rounded=0;orthogonalLoop=1;jettySize=auto;html=1;exitX=0.5;exitY=0;exitDx=0;exitDy=0;entryX=0.517;entryY=1.022;entryDx=0;entryDy=0;entryPerimeter=0;dashed=1;endArrow=block;endFill=0;startSize=15;endSize=15;fillColor=#dae8fc;strokeColor=#6c8ebf;" edge="1" parent="WIyWlLk6GJQsqaUBKTNV-1" source="qMRaLrNa-dL105C4I90B-61" target="qMRaLrNa-dL105C4I90B-54">
          <mxGeometry relative="1" as="geometry" />
        </mxCell>
        <mxCell id="qMRaLrNa-dL105C4I90B-61" value="DefaultLabelTheme" style="swimlane;fontStyle=1;align=center;verticalAlign=top;childLayout=stackLayout;horizontal=1;startSize=26;horizontalStack=0;resizeParent=1;resizeParentMax=0;resizeLast=0;collapsible=1;marginBottom=0;whiteSpace=wrap;html=1;fillColor=#dae8fc;strokeColor=#6c8ebf;" vertex="1" parent="WIyWlLk6GJQsqaUBKTNV-1">
          <mxGeometry x="-870" y="1491" width="170" height="70" as="geometry" />
        </mxCell>
        <mxCell id="qMRaLrNa-dL105C4I90B-62" value="&lt;div&gt;var textColor: UIColor&lt;/div&gt;&lt;div&gt;var backgroundColor: UIColor&lt;br&gt;&lt;/div&gt;" style="text;strokeColor=#6c8ebf;fillColor=#dae8fc;align=left;verticalAlign=top;spacingLeft=4;spacingRight=4;overflow=hidden;rotatable=0;points=[[0,0.5],[1,0.5]];portConstraint=eastwest;whiteSpace=wrap;html=1;" vertex="1" parent="qMRaLrNa-dL105C4I90B-61">
          <mxGeometry y="26" width="170" height="44" as="geometry" />
        </mxCell>
        <mxCell id="qMRaLrNa-dL105C4I90B-69" style="edgeStyle=orthogonalEdgeStyle;rounded=0;orthogonalLoop=1;jettySize=auto;html=1;exitX=0.5;exitY=0;exitDx=0;exitDy=0;dashed=1;endArrow=block;endFill=0;startSize=15;endSize=15;fillColor=#dae8fc;strokeColor=#6c8ebf;" edge="1" parent="WIyWlLk6GJQsqaUBKTNV-1" source="qMRaLrNa-dL105C4I90B-63">
          <mxGeometry relative="1" as="geometry">
            <mxPoint x="-657" y="1408" as="targetPoint" />
          </mxGeometry>
        </mxCell>
        <mxCell id="qMRaLrNa-dL105C4I90B-63" value="NightLabelTheme" style="swimlane;fontStyle=1;align=center;verticalAlign=top;childLayout=stackLayout;horizontal=1;startSize=26;horizontalStack=0;resizeParent=1;resizeParentMax=0;resizeLast=0;collapsible=1;marginBottom=0;whiteSpace=wrap;html=1;fillColor=#dae8fc;strokeColor=#6c8ebf;" vertex="1" parent="WIyWlLk6GJQsqaUBKTNV-1">
          <mxGeometry x="-618" y="1491" width="170" height="70" as="geometry" />
        </mxCell>
        <mxCell id="qMRaLrNa-dL105C4I90B-64" value="&lt;div&gt;var textColor: UIColor&lt;/div&gt;&lt;div&gt;var backgroundColor: UIColor&lt;br&gt;&lt;/div&gt;" style="text;strokeColor=#6c8ebf;fillColor=#dae8fc;align=left;verticalAlign=top;spacingLeft=4;spacingRight=4;overflow=hidden;rotatable=0;points=[[0,0.5],[1,0.5]];portConstraint=eastwest;whiteSpace=wrap;html=1;" vertex="1" parent="qMRaLrNa-dL105C4I90B-63">
          <mxGeometry y="26" width="170" height="44" as="geometry" />
        </mxCell>
        <mxCell id="qMRaLrNa-dL105C4I90B-85" style="edgeStyle=orthogonalEdgeStyle;rounded=0;orthogonalLoop=1;jettySize=auto;html=1;exitX=0.5;exitY=1;exitDx=0;exitDy=0;endSize=15;endArrow=openThin;endFill=0;fillColor=#dae8fc;strokeColor=#6c8ebf;" edge="1" parent="WIyWlLk6GJQsqaUBKTNV-1" source="qMRaLrNa-dL105C4I90B-70" target="qMRaLrNa-dL105C4I90B-71">
          <mxGeometry relative="1" as="geometry" />
        </mxCell>
        <mxCell id="qMRaLrNa-dL105C4I90B-70" value="Client" style="html=1;whiteSpace=wrap;fillColor=#dae8fc;strokeColor=#6c8ebf;" vertex="1" parent="WIyWlLk6GJQsqaUBKTNV-1">
          <mxGeometry x="-285" y="570" width="110" height="50" as="geometry" />
        </mxCell>
        <mxCell id="qMRaLrNa-dL105C4I90B-71" value="&lt;span style=&quot;font-weight: normal;&quot;&gt;&amp;lt;&amp;lt;Protocol&amp;gt;&amp;gt;&lt;/span&gt;&lt;br&gt;Component" style="swimlane;fontStyle=1;align=center;verticalAlign=top;childLayout=stackLayout;horizontal=1;startSize=40;horizontalStack=0;resizeParent=1;resizeParentMax=0;resizeLast=0;collapsible=1;marginBottom=0;whiteSpace=wrap;html=1;fillColor=#dae8fc;strokeColor=#6c8ebf;" vertex="1" parent="WIyWlLk6GJQsqaUBKTNV-1">
          <mxGeometry x="-310" y="690" width="160" height="66" as="geometry" />
        </mxCell>
        <mxCell id="qMRaLrNa-dL105C4I90B-72" value="&lt;div&gt;+ execute()&lt;/div&gt;" style="text;strokeColor=#6c8ebf;fillColor=#dae8fc;align=left;verticalAlign=top;spacingLeft=4;spacingRight=4;overflow=hidden;rotatable=0;points=[[0,0.5],[1,0.5]];portConstraint=eastwest;whiteSpace=wrap;html=1;" vertex="1" parent="qMRaLrNa-dL105C4I90B-71">
          <mxGeometry y="40" width="160" height="26" as="geometry" />
        </mxCell>
        <mxCell id="qMRaLrNa-dL105C4I90B-82" style="edgeStyle=orthogonalEdgeStyle;rounded=0;orthogonalLoop=1;jettySize=auto;html=1;exitX=0.5;exitY=0;exitDx=0;exitDy=0;entryX=0.487;entryY=1;entryDx=0;entryDy=0;entryPerimeter=0;dashed=1;endArrow=block;endFill=0;endSize=15;fillColor=#dae8fc;strokeColor=#6c8ebf;" edge="1" parent="WIyWlLk6GJQsqaUBKTNV-1" source="qMRaLrNa-dL105C4I90B-73" target="qMRaLrNa-dL105C4I90B-72">
          <mxGeometry relative="1" as="geometry">
            <Array as="points">
              <mxPoint x="-351" y="800" />
              <mxPoint x="-232" y="800" />
            </Array>
          </mxGeometry>
        </mxCell>
        <mxCell id="qMRaLrNa-dL105C4I90B-73" value="Leaf" style="swimlane;fontStyle=1;align=center;verticalAlign=top;childLayout=stackLayout;horizontal=1;startSize=26;horizontalStack=0;resizeParent=1;resizeParentMax=0;resizeLast=0;collapsible=1;marginBottom=0;whiteSpace=wrap;html=1;fillColor=#dae8fc;strokeColor=#6c8ebf;" vertex="1" parent="WIyWlLk6GJQsqaUBKTNV-1">
          <mxGeometry x="-431" y="830" width="160" height="78" as="geometry" />
        </mxCell>
        <mxCell id="qMRaLrNa-dL105C4I90B-74" value="..." style="text;strokeColor=#6c8ebf;fillColor=#dae8fc;align=left;verticalAlign=top;spacingLeft=4;spacingRight=4;overflow=hidden;rotatable=0;points=[[0,0.5],[1,0.5]];portConstraint=eastwest;whiteSpace=wrap;html=1;" vertex="1" parent="qMRaLrNa-dL105C4I90B-73">
          <mxGeometry y="26" width="160" height="26" as="geometry" />
        </mxCell>
        <mxCell id="qMRaLrNa-dL105C4I90B-76" value="+ execute()" style="text;strokeColor=#6c8ebf;fillColor=#dae8fc;align=left;verticalAlign=top;spacingLeft=4;spacingRight=4;overflow=hidden;rotatable=0;points=[[0,0.5],[1,0.5]];portConstraint=eastwest;whiteSpace=wrap;html=1;" vertex="1" parent="qMRaLrNa-dL105C4I90B-73">
          <mxGeometry y="52" width="160" height="26" as="geometry" />
        </mxCell>
        <mxCell id="qMRaLrNa-dL105C4I90B-83" style="edgeStyle=orthogonalEdgeStyle;rounded=0;orthogonalLoop=1;jettySize=auto;html=1;exitX=0.5;exitY=0;exitDx=0;exitDy=0;entryX=0.484;entryY=1;entryDx=0;entryDy=0;entryPerimeter=0;dashed=1;endArrow=block;endFill=0;endSize=15;fillColor=#dae8fc;strokeColor=#6c8ebf;" edge="1" parent="WIyWlLk6GJQsqaUBKTNV-1" source="qMRaLrNa-dL105C4I90B-78" target="qMRaLrNa-dL105C4I90B-72">
          <mxGeometry relative="1" as="geometry">
            <mxPoint x="-232" y="760" as="targetPoint" />
            <mxPoint x="-107" y="823" as="sourcePoint" />
            <Array as="points">
              <mxPoint x="-107" y="830" />
              <mxPoint x="-107" y="800" />
              <mxPoint x="-233" y="800" />
            </Array>
          </mxGeometry>
        </mxCell>
        <mxCell id="qMRaLrNa-dL105C4I90B-78" value="Composite" style="swimlane;fontStyle=1;align=center;verticalAlign=top;childLayout=stackLayout;horizontal=1;startSize=26;horizontalStack=0;resizeParent=1;resizeParentMax=0;resizeLast=0;collapsible=1;marginBottom=0;whiteSpace=wrap;html=1;fillColor=#dae8fc;strokeColor=#6c8ebf;" vertex="1" parent="WIyWlLk6GJQsqaUBKTNV-1">
          <mxGeometry x="-191" y="830" width="170" height="122" as="geometry" />
        </mxCell>
        <mxCell id="qMRaLrNa-dL105C4I90B-79" value="- children: [Component]" style="text;strokeColor=#6c8ebf;fillColor=#dae8fc;align=left;verticalAlign=top;spacingLeft=4;spacingRight=4;overflow=hidden;rotatable=0;points=[[0,0.5],[1,0.5]];portConstraint=eastwest;whiteSpace=wrap;html=1;" vertex="1" parent="qMRaLrNa-dL105C4I90B-78">
          <mxGeometry y="26" width="170" height="26" as="geometry" />
        </mxCell>
        <mxCell id="qMRaLrNa-dL105C4I90B-81" value="+ add(c: Component)&lt;br&gt;+ remove(c: Component)&lt;br&gt;+ getChildren(): [Component)&lt;br&gt;+ execute()" style="text;strokeColor=#6c8ebf;fillColor=#dae8fc;align=left;verticalAlign=top;spacingLeft=4;spacingRight=4;overflow=hidden;rotatable=0;points=[[0,0.5],[1,0.5]];portConstraint=eastwest;whiteSpace=wrap;html=1;" vertex="1" parent="qMRaLrNa-dL105C4I90B-78">
          <mxGeometry y="52" width="170" height="70" as="geometry" />
        </mxCell>
        <mxCell id="qMRaLrNa-dL105C4I90B-84" style="edgeStyle=orthogonalEdgeStyle;rounded=0;orthogonalLoop=1;jettySize=auto;html=1;exitX=1;exitY=0.5;exitDx=0;exitDy=0;entryX=0.75;entryY=0;entryDx=0;entryDy=0;endSize=15;startSize=15;endArrow=diamondThin;endFill=0;startArrow=openThin;startFill=0;fillColor=#dae8fc;strokeColor=#6c8ebf;" edge="1" parent="WIyWlLk6GJQsqaUBKTNV-1" source="qMRaLrNa-dL105C4I90B-72" target="qMRaLrNa-dL105C4I90B-78">
          <mxGeometry relative="1" as="geometry" />
        </mxCell>
        <mxCell id="qMRaLrNa-dL105C4I90B-86" value="Composite Pattern Structure" style="text;html=1;strokeColor=none;fillColor=none;align=center;verticalAlign=middle;whiteSpace=wrap;rounded=0;fontSize=30;fontColor=#6C8EBF;" vertex="1" parent="WIyWlLk6GJQsqaUBKTNV-1">
          <mxGeometry x="-453" y="510" width="453" height="30" as="geometry" />
        </mxCell>
        <mxCell id="qMRaLrNa-dL105C4I90B-89" value="UIView" style="swimlane;fontStyle=1;align=center;verticalAlign=top;childLayout=stackLayout;horizontal=1;startSize=26;horizontalStack=0;resizeParent=1;resizeParentMax=0;resizeLast=0;collapsible=1;marginBottom=0;whiteSpace=wrap;html=1;fillColor=#dae8fc;strokeColor=#6c8ebf;" vertex="1" parent="WIyWlLk6GJQsqaUBKTNV-1">
          <mxGeometry x="-351" y="1344" width="200" height="52" as="geometry" />
        </mxCell>
        <mxCell id="qMRaLrNa-dL105C4I90B-90" value="func accept&amp;lt;T: Theme&amp;gt;(theme: T)" style="text;strokeColor=#6c8ebf;fillColor=#dae8fc;align=left;verticalAlign=top;spacingLeft=4;spacingRight=4;overflow=hidden;rotatable=0;points=[[0,0.5],[1,0.5]];portConstraint=eastwest;whiteSpace=wrap;html=1;" vertex="1" parent="qMRaLrNa-dL105C4I90B-89">
          <mxGeometry y="26" width="200" height="26" as="geometry" />
        </mxCell>
        <mxCell id="qMRaLrNa-dL105C4I90B-97" style="edgeStyle=orthogonalEdgeStyle;rounded=0;orthogonalLoop=1;jettySize=auto;html=1;exitX=0.5;exitY=0;exitDx=0;exitDy=0;entryX=0.495;entryY=1.016;entryDx=0;entryDy=0;entryPerimeter=0;fillColor=#dae8fc;strokeColor=#6c8ebf;dashed=1;endSize=15;endArrow=block;endFill=0;" edge="1" parent="WIyWlLk6GJQsqaUBKTNV-1" target="qMRaLrNa-dL105C4I90B-40">
          <mxGeometry relative="1" as="geometry">
            <mxPoint x="170" y="1237" as="targetPoint" />
            <mxPoint x="26" y="1345" as="sourcePoint" />
            <Array as="points">
              <mxPoint x="26" y="1295" />
              <mxPoint x="170" y="1295" />
            </Array>
          </mxGeometry>
        </mxCell>
        <mxCell id="qMRaLrNa-dL105C4I90B-91" value="UILabel" style="swimlane;fontStyle=1;align=center;verticalAlign=top;childLayout=stackLayout;horizontal=1;startSize=26;horizontalStack=0;resizeParent=1;resizeParentMax=0;resizeLast=0;collapsible=1;marginBottom=0;whiteSpace=wrap;html=1;fillColor=#dae8fc;strokeColor=#6c8ebf;" vertex="1" parent="WIyWlLk6GJQsqaUBKTNV-1">
          <mxGeometry x="-73" y="1344" width="200" height="52" as="geometry" />
        </mxCell>
        <mxCell id="qMRaLrNa-dL105C4I90B-92" value="func accept&amp;lt;T: Theme&amp;gt;(theme: T)" style="text;strokeColor=#6c8ebf;fillColor=#dae8fc;align=left;verticalAlign=top;spacingLeft=4;spacingRight=4;overflow=hidden;rotatable=0;points=[[0,0.5],[1,0.5]];portConstraint=eastwest;whiteSpace=wrap;html=1;" vertex="1" parent="qMRaLrNa-dL105C4I90B-91">
          <mxGeometry y="26" width="200" height="26" as="geometry" />
        </mxCell>
        <mxCell id="qMRaLrNa-dL105C4I90B-98" style="edgeStyle=orthogonalEdgeStyle;rounded=0;orthogonalLoop=1;jettySize=auto;html=1;exitX=0.5;exitY=0;exitDx=0;exitDy=0;entryX=0.496;entryY=0.989;entryDx=0;entryDy=0;entryPerimeter=0;fillColor=#dae8fc;strokeColor=#6c8ebf;dashed=1;endSize=15;endArrow=block;endFill=0;" edge="1" parent="WIyWlLk6GJQsqaUBKTNV-1" target="qMRaLrNa-dL105C4I90B-40">
          <mxGeometry relative="1" as="geometry">
            <mxPoint x="308" y="1345" as="sourcePoint" />
            <mxPoint x="170.79999999999995" y="1237.546" as="targetPoint" />
            <Array as="points">
              <mxPoint x="308" y="1295" />
              <mxPoint x="170" y="1295" />
            </Array>
          </mxGeometry>
        </mxCell>
        <mxCell id="qMRaLrNa-dL105C4I90B-93" value="UIButton" style="swimlane;fontStyle=1;align=center;verticalAlign=top;childLayout=stackLayout;horizontal=1;startSize=26;horizontalStack=0;resizeParent=1;resizeParentMax=0;resizeLast=0;collapsible=1;marginBottom=0;whiteSpace=wrap;html=1;fillColor=#dae8fc;strokeColor=#6c8ebf;" vertex="1" parent="WIyWlLk6GJQsqaUBKTNV-1">
          <mxGeometry x="207" y="1344" width="200" height="52" as="geometry" />
        </mxCell>
        <mxCell id="qMRaLrNa-dL105C4I90B-94" value="func accept&amp;lt;T: Theme&amp;gt;(theme: T)" style="text;strokeColor=#6c8ebf;fillColor=#dae8fc;align=left;verticalAlign=top;spacingLeft=4;spacingRight=4;overflow=hidden;rotatable=0;points=[[0,0.5],[1,0.5]];portConstraint=eastwest;whiteSpace=wrap;html=1;" vertex="1" parent="qMRaLrNa-dL105C4I90B-93">
          <mxGeometry y="26" width="200" height="26" as="geometry" />
        </mxCell>
        <mxCell id="qMRaLrNa-dL105C4I90B-110" style="edgeStyle=orthogonalEdgeStyle;rounded=0;orthogonalLoop=1;jettySize=auto;html=1;exitX=0.75;exitY=0;exitDx=0;exitDy=0;entryX=1;entryY=0.25;entryDx=0;entryDy=0;fillColor=#dae8fc;strokeColor=#6c8ebf;endArrow=open;endFill=0;startArrow=diamondThin;startFill=0;endSize=15;startSize=15;" edge="1" parent="WIyWlLk6GJQsqaUBKTNV-1" source="qMRaLrNa-dL105C4I90B-95" target="qMRaLrNa-dL105C4I90B-39">
          <mxGeometry relative="1" as="geometry" />
        </mxCell>
        <mxCell id="qMRaLrNa-dL105C4I90B-95" value="UIViewController" style="swimlane;fontStyle=1;align=center;verticalAlign=top;childLayout=stackLayout;horizontal=1;startSize=26;horizontalStack=0;resizeParent=1;resizeParentMax=0;resizeLast=0;collapsible=1;marginBottom=0;whiteSpace=wrap;html=1;fillColor=#dae8fc;strokeColor=#6c8ebf;" vertex="1" parent="WIyWlLk6GJQsqaUBKTNV-1">
          <mxGeometry x="489" y="1344" width="200" height="52" as="geometry" />
        </mxCell>
        <mxCell id="qMRaLrNa-dL105C4I90B-96" value="func accept&amp;lt;T: Theme&amp;gt;(theme: T)" style="text;strokeColor=#6c8ebf;fillColor=#dae8fc;align=left;verticalAlign=top;spacingLeft=4;spacingRight=4;overflow=hidden;rotatable=0;points=[[0,0.5],[1,0.5]];portConstraint=eastwest;whiteSpace=wrap;html=1;" vertex="1" parent="qMRaLrNa-dL105C4I90B-95">
          <mxGeometry y="26" width="200" height="26" as="geometry" />
        </mxCell>
        <mxCell id="qMRaLrNa-dL105C4I90B-107" style="edgeStyle=orthogonalEdgeStyle;rounded=0;orthogonalLoop=1;jettySize=auto;html=1;exitX=0.5;exitY=0;exitDx=0;exitDy=0;entryX=0.5;entryY=1;entryDx=0;entryDy=0;fillColor=#dae8fc;strokeColor=#6c8ebf;endArrow=block;endFill=0;endSize=15;" edge="1" parent="WIyWlLk6GJQsqaUBKTNV-1" source="qMRaLrNa-dL105C4I90B-99" target="qMRaLrNa-dL105C4I90B-95">
          <mxGeometry relative="1" as="geometry" />
        </mxCell>
        <mxCell id="qMRaLrNa-dL105C4I90B-99" value="WelcomeViewController" style="swimlane;fontStyle=1;align=center;verticalAlign=top;childLayout=stackLayout;horizontal=1;startSize=26;horizontalStack=0;resizeParent=1;resizeParentMax=0;resizeLast=0;collapsible=1;marginBottom=0;whiteSpace=wrap;html=1;fillColor=#dae8fc;strokeColor=#6c8ebf;" vertex="1" parent="WIyWlLk6GJQsqaUBKTNV-1">
          <mxGeometry x="503.5" y="1484" width="171" height="78" as="geometry" />
        </mxCell>
        <mxCell id="qMRaLrNa-dL105C4I90B-100" value="var contentView: ContentView" style="text;strokeColor=#6c8ebf;fillColor=#dae8fc;align=left;verticalAlign=top;spacingLeft=4;spacingRight=4;overflow=hidden;rotatable=0;points=[[0,0.5],[1,0.5]];portConstraint=eastwest;whiteSpace=wrap;html=1;" vertex="1" parent="qMRaLrNa-dL105C4I90B-99">
          <mxGeometry y="26" width="171" height="26" as="geometry" />
        </mxCell>
        <mxCell id="qMRaLrNa-dL105C4I90B-102" value="+ loadView()" style="text;strokeColor=#6c8ebf;fillColor=#dae8fc;align=left;verticalAlign=top;spacingLeft=4;spacingRight=4;overflow=hidden;rotatable=0;points=[[0,0.5],[1,0.5]];portConstraint=eastwest;whiteSpace=wrap;html=1;" vertex="1" parent="qMRaLrNa-dL105C4I90B-99">
          <mxGeometry y="52" width="171" height="26" as="geometry" />
        </mxCell>
        <mxCell id="qMRaLrNa-dL105C4I90B-108" style="edgeStyle=orthogonalEdgeStyle;rounded=0;orthogonalLoop=1;jettySize=auto;html=1;exitX=0.5;exitY=0;exitDx=0;exitDy=0;entryX=0.5;entryY=1;entryDx=0;entryDy=0;fillColor=#dae8fc;strokeColor=#6c8ebf;endArrow=block;endFill=0;endSize=15;" edge="1" parent="WIyWlLk6GJQsqaUBKTNV-1" source="qMRaLrNa-dL105C4I90B-103" target="qMRaLrNa-dL105C4I90B-89">
          <mxGeometry relative="1" as="geometry" />
        </mxCell>
        <mxCell id="qMRaLrNa-dL105C4I90B-103" value="ContentView" style="swimlane;fontStyle=1;align=center;verticalAlign=top;childLayout=stackLayout;horizontal=1;startSize=26;horizontalStack=0;resizeParent=1;resizeParentMax=0;resizeLast=0;collapsible=1;marginBottom=0;whiteSpace=wrap;html=1;fillColor=#dae8fc;strokeColor=#6c8ebf;" vertex="1" parent="WIyWlLk6GJQsqaUBKTNV-1">
          <mxGeometry x="-336" y="1484" width="170" height="96" as="geometry" />
        </mxCell>
        <mxCell id="qMRaLrNa-dL105C4I90B-104" value="&lt;div&gt;var titleLabel: UILabel&lt;/div&gt;&lt;div&gt;var actionButton: UIButton&lt;/div&gt;" style="text;strokeColor=#6c8ebf;fillColor=#dae8fc;align=left;verticalAlign=top;spacingLeft=4;spacingRight=4;overflow=hidden;rotatable=0;points=[[0,0.5],[1,0.5]];portConstraint=eastwest;whiteSpace=wrap;html=1;" vertex="1" parent="qMRaLrNa-dL105C4I90B-103">
          <mxGeometry y="26" width="170" height="44" as="geometry" />
        </mxCell>
        <mxCell id="qMRaLrNa-dL105C4I90B-106" value="+ func setup()" style="text;strokeColor=#6c8ebf;fillColor=#dae8fc;align=left;verticalAlign=top;spacingLeft=4;spacingRight=4;overflow=hidden;rotatable=0;points=[[0,0.5],[1,0.5]];portConstraint=eastwest;whiteSpace=wrap;html=1;" vertex="1" parent="qMRaLrNa-dL105C4I90B-103">
          <mxGeometry y="70" width="170" height="26" as="geometry" />
        </mxCell>
        <mxCell id="qMRaLrNa-dL105C4I90B-109" style="rounded=0;orthogonalLoop=1;jettySize=auto;html=1;exitX=0;exitY=0.5;exitDx=0;exitDy=0;entryX=1;entryY=0.25;entryDx=0;entryDy=0;fillColor=#dae8fc;strokeColor=#6c8ebf;endArrow=openThin;endFill=0;endSize=15;edgeStyle=orthogonalEdgeStyle;" edge="1" parent="WIyWlLk6GJQsqaUBKTNV-1" source="qMRaLrNa-dL105C4I90B-40" target="qMRaLrNa-dL105C4I90B-49">
          <mxGeometry relative="1" as="geometry" />
        </mxCell>
        <mxCell id="qMRaLrNa-dL105C4I90B-111" value="Composite Example" style="text;html=1;strokeColor=none;fillColor=none;align=center;verticalAlign=middle;whiteSpace=wrap;rounded=0;fontSize=30;fontColor=#6C8EBF;" vertex="1" parent="WIyWlLk6GJQsqaUBKTNV-1">
          <mxGeometry x="-470" y="1110" width="453" height="30" as="geometry" />
        </mxCell>
        <mxCell id="qMRaLrNa-dL105C4I90B-112" value="Class Diagram vs Composite Structures" style="text;html=1;strokeColor=none;fillColor=none;align=center;verticalAlign=middle;whiteSpace=wrap;rounded=0;fontSize=30;fontColor=#6C8EBF;" vertex="1" parent="WIyWlLk6GJQsqaUBKTNV-1">
          <mxGeometry x="-690" y="50" width="1060" height="30" as="geometry" />
        </mxCell>
        <mxCell id="qMRaLrNa-dL105C4I90B-113" value="WelcomeViewController" style="swimlane;whiteSpace=wrap;html=1;fillColor=#dae8fc;strokeColor=#6c8ebf;" vertex="1" parent="WIyWlLk6GJQsqaUBKTNV-1">
          <mxGeometry x="31" y="1700" width="280" height="290" as="geometry" />
        </mxCell>
        <mxCell id="qMRaLrNa-dL105C4I90B-114" value="-contentView: ContentView" style="swimlane;whiteSpace=wrap;html=1;fillColor=#dae8fc;strokeColor=#6c8ebf;expand=1;swimlaneHead=1;swimlaneBody=1;horizontal=1;connectable=1;allowArrows=1;container=0;" vertex="1" parent="qMRaLrNa-dL105C4I90B-113">
          <mxGeometry x="42.75" y="50" width="194.5" height="210" as="geometry" />
        </mxCell>
        <mxCell id="qMRaLrNa-dL105C4I90B-115" value="titleLabel: UILabel" style="html=1;whiteSpace=wrap;fillColor=#dae8fc;strokeColor=#6c8ebf;" vertex="1" parent="qMRaLrNa-dL105C4I90B-114">
          <mxGeometry x="30" y="50" width="130" height="50" as="geometry" />
        </mxCell>
        <mxCell id="qMRaLrNa-dL105C4I90B-116" value="actionButton: UIButton" style="html=1;whiteSpace=wrap;fillColor=#dae8fc;strokeColor=#6c8ebf;" vertex="1" parent="qMRaLrNa-dL105C4I90B-114">
          <mxGeometry x="30" y="120" width="130" height="50" as="geometry" />
        </mxCell>
      </root>
    </mxGraphModel>
  </diagram>
</mxfile>
